<svg xmlns="http://www.w3.org/2000/svg" viewBox="0 0 100 100" width="100" height="100">
  <!-- Градиенты и эффекты -->
  <defs>
    <linearGradient id="bgGradient" x1="0%" y1="0%" x2="100%" y2="100%">
      <stop offset="0%" style="stop-color:#667eea;stop-opacity:1" />
      <stop offset="100%" style="stop-color:#764ba2;stop-opacity:1" />
    </linearGradient>
    <linearGradient id="brainGradient" x1="0%" y1="0%" x2="100%" y2="100%">
      <stop offset="0%" style="stop-color:#ff9a9e;stop-opacity:0.95" />
      <stop offset="50%" style="stop-color:#fecfef;stop-opacity:0.9" />
      <stop offset="100%" style="stop-color:#fecfef;stop-opacity:0.85" />
    </linearGradient>
    <filter id="softShadow" x="-50%" y="-50%" width="200%" height="200%">
      <feDropShadow dx="0" dy="2" stdDeviation="3" flood-color="rgba(0,0,0,0.1)"/>
    </filter>
    <filter id="glassEffect" x="-50%" y="-50%" width="200%" height="200%">
      <feDropShadow dx="0" dy="1" stdDeviation="2" flood-color="rgba(255,255,255,0.3)"/>
    </filter>
  </defs>

  <!-- Фон иконки с мягкой тенью -->
  <rect width="100" height="100" rx="24" ry="24" fill="url(#bgGradient)" filter="url(#softShadow)"/>

  <!-- Внутренний блик для глубины -->
  <rect width="94" height="94" x="3" y="3" rx="21" ry="21" fill="none" stroke="rgba(255,255,255,0.2)" stroke-width="1"/>

  <!-- Мозг с современным дизайном -->
  <ellipse cx="50" cy="50" rx="35" ry="28" fill="url(#brainGradient)" filter="url(#softShadow)"/>

  <!-- Современные очки с закругленными формами -->
  <!-- Левая линза -->
  <circle cx="37" cy="47" r="13" fill="none" stroke="rgba(255,255,255,0.9)" stroke-width="2.5" filter="url(#glassEffect)"/>
  <!-- Правая линза -->
  <circle cx="63" cy="47" r="13" fill="none" stroke="rgba(255,255,255,0.9)" stroke-width="2.5" filter="url(#glassEffect)"/>

  <!-- Переносица с плавными формами -->
  <path d="M50 44 Q50 46 50 48" stroke="rgba(255,255,255,0.9)" stroke-width="2.5" fill="none" stroke-linecap="round"/>

  <!-- Современные дужки -->
  <path d="M24 47 Q20 45 18 50 Q17 53 19 55" fill="none" stroke="rgba(255,255,255,0.9)" stroke-width="2.5" stroke-linecap="round"/>
  <path d="M76 47 Q80 45 82 50 Q83 53 81 55" fill="none" stroke="rgba(255,255,255,0.9)" stroke-width="2.5" stroke-linecap="round"/>

  <!-- Стильные блики на линзах -->
  <ellipse cx="32" cy="42" rx="3" ry="2" fill="rgba(255,255,255,0.7)" transform="rotate(-30 32 42)"/>
  <ellipse cx="68" cy="42" rx="3" ry="2" fill="rgba(255,255,255,0.7)" transform="rotate(-30 68 42)"/>

  <!-- Тонкая улыбка -->
  <path d="M40 67 Q50 73 60 67" fill="none" stroke="rgba(255,255,255,0.8)" stroke-width="2" stroke-linecap="round"/>

  <!-- Дополнительный блик на иконке -->
  <ellipse cx="25" cy="25" rx="8" ry="4" fill="rgba(255,255,255,0.15)" transform="rotate(-45 25 25)"/>
</svg>
